<?xml version="1.0" encoding="utf-8"?>
<!-- Generator: Adobe Illustrator 24.0.1, SVG Export Plug-In . SVG Version: 6.00 Build 0)  -->
<svg version="1.1" id="Layer_1" xmlns="http://www.w3.org/2000/svg" xmlns:xlink="http://www.w3.org/1999/xlink" x="0px" y="0px"
	 viewBox="0 0 3000 3000" style="enable-background:new 0 0 3000 3000;" xml:space="preserve">
<style type="text/css">
	.st0{fill:#2E3192;}
	.st1{fill:#15A1DC;}
	.st2{fill:#F7941D;}
	.st3{fill:url(#SVGID_1_);}
	.st4{fill:url(#SVGID_2_);}
	.st5{fill:url(#SVGID_3_);}
	.st6{fill:url(#SVGID_4_);}
	.st7{fill:url(#SVGID_5_);}
	.st8{fill:url(#SVGID_6_);}
	.st9{fill:url(#SVGID_7_);}
	.st10{fill:url(#SVGID_8_);}
	.st11{opacity:0.2;}
	.st12{fill:#103558;}
	.st13{fill:#017EA7;}
	.st14{fill:none;stroke:#FFFFFF;stroke-width:10;stroke-miterlimit:10;}
	.st15{fill:#FBB040;}
	.st16{fill:#FFFFFF;}
	.st17{fill:#37BFC1;}
	.st18{fill:#1D9E9A;}
	.st19{fill:#13A099;}
	.st20{font-family:'HelveticaNeue-Bold';}
	.st21{font-size:300px;}
	.st22{letter-spacing:-6;}
	.st23{fill:#051920;}
</style>
<g>
	<text transform="matrix(1 0 0 1 541.5828 1825.3276)" class="st13 st20 st21 st22">TALENT CODE</text>
	<polygon class="st0" points="1650.1,1518.84 1650.11,1518.84 1650.11,1518.84 	"/>
	<g>
		<g>
			<path class="st12" d="M1751.17,1206.2c0-107.61-87.54-195.15-195.15-195.15c-107.61,0-195.15,87.54-195.15,195.15
				c0,72.09,39.3,135.18,97.6,168.97l58.2-100.81c-23.52-13.61-39.36-39.02-39.36-68.15c0-43.47,35.24-78.71,78.71-78.71
				c43.47,0,78.71,35.24,78.71,78.71c0,29.13-15.84,54.54-39.36,68.15l58.2,100.81C1711.88,1341.37,1751.17,1278.29,1751.17,1206.2z
				"/>
			<path class="st12" d="M1556.03,893.56c-172.67,0-312.64,139.97-312.64,312.64c0,115.71,62.86,216.73,156.3,270.79l53.89-93.35
				c-61.22-35.48-102.49-101.73-102.49-177.44c0-113.01,91.94-204.94,204.94-204.94c113.01,0,204.94,91.94,204.94,204.94
				c0,75.71-41.27,141.96-102.49,177.44l53.89,93.35c93.43-54.06,156.3-155.08,156.3-270.79
				C1868.67,1033.53,1728.69,893.56,1556.03,893.56z"/>
		</g>
		<polygon class="st13" points="1556.03,1284.85 1430.19,1502.81 1681.87,1502.81 		"/>
	</g>
</g>
</svg>
