<?xml version="1.0" encoding="utf-8"?>
<!-- Generator: Adobe Illustrator 24.0.1, SVG Export Plug-In . SVG Version: 6.00 Build 0)  -->
<svg version="1.1" id="Layer_1" xmlns="http://www.w3.org/2000/svg" xmlns:xlink="http://www.w3.org/1999/xlink" x="0px" y="0px"
	 viewBox="0 0 3000 3000" style="enable-background:new 0 0 3000 3000;" xml:space="preserve">
<style type="text/css">
	.st0{fill:#2E3192;}
	.st1{fill:#15A1DC;}
	.st2{fill:#F7941D;}
	.st3{fill:url(#SVGID_1_);}
	.st4{fill:url(#SVGID_2_);}
	.st5{fill:url(#SVGID_3_);}
	.st6{fill:url(#SVGID_4_);}
	.st7{fill:url(#SVGID_5_);}
	.st8{fill:url(#SVGID_6_);}
	.st9{fill:url(#SVGID_7_);}
	.st10{fill:url(#SVGID_8_);}
	.st11{opacity:0.2;}
	.st12{fill:#103558;}
	.st13{fill:#017EA7;}
	.st14{fill:none;stroke:#FFFFFF;stroke-width:10;stroke-miterlimit:10;}
	.st15{fill:#FBB040;}
	.st16{fill:#FFFFFF;}
	.st17{fill:#37BFC1;}
	.st18{fill:#1D9E9A;}
	.st19{fill:#13A099;}
	.st20{fill:#051920;}
</style>
<g>
	<g>
		<path class="st12" d="M2035.93,1397.17c0-295.51-240.42-535.93-535.93-535.93c-295.51,0-535.93,240.42-535.93,535.93
			c0,197.99,107.93,371.23,268.03,464.02l159.84-276.86c-64.6-37.38-108.09-107.17-108.09-187.17
			c0-119.38,96.77-216.15,216.15-216.15c119.38,0,216.15,96.77,216.15,216.15c0,80-43.49,149.79-108.09,187.17l159.84,276.85
			C1928,1768.4,2035.93,1595.16,2035.93,1397.17z"/>
		<path class="st12" d="M1500,538.58c-474.19,0-858.59,384.4-858.59,858.59c0,317.77,172.64,595.2,429.24,743.66l148.01-256.35
			c-168.14-97.45-281.48-279.39-281.48-487.31c0-310.34,252.48-562.82,562.82-562.82c310.34,0,562.82,252.48,562.82,562.82
			c0,207.92-113.34,389.86-281.47,487.31l148.01,256.35c256.59-148.46,429.24-425.89,429.24-743.66
			C2358.59,922.99,1974.19,538.58,1500,538.58z"/>
	</g>
	<polygon class="st13" points="1500,1613.16 1154.41,2211.74 1845.59,2211.74 	"/>
</g>
</svg>
